<svg id="MENU_HEADER" data-name="MENU HEADER" xmlns="http://www.w3.org/2000/svg" viewBox="0 0 243.25 54.78"><defs><style>.cls-1{fill:#062946;}.cls-2{fill:#f8992f;}.cls-3{fill:#7d8ca0;}</style></defs><polygon class="cls-1" points="147.11 0 171.14 0 172.95 11.69 184.13 0 206.44 0 204.43 12.06 217.35 0 243.25 0 212.06 31.66 187.83 31.66 186.72 19.51 172.79 31.66 152.54 31.66 147.11 0"/><path class="cls-1" d="M1059.16,108.77l.49-.73a.22.22,0,0,1,.29-.06,1.91,1.91,0,0,0,1,.4.55.55,0,0,0,.58-.55c0-.33-.21-.58-.6-.83a2.44,2.44,0,0,1-1.35-1.9,1.93,1.93,0,0,1,2.15-1.92,2.74,2.74,0,0,1,1.73.66.24.24,0,0,1,.06.31l-.58.7a.23.23,0,0,1-.29.05,1.79,1.79,0,0,0-1-.41.53.53,0,0,0-.58.46c0,.32.2.49.75.82a2.35,2.35,0,0,1,1.34,1.92,2,2,0,0,1-2.27,2,2.36,2.36,0,0,1-1.75-.7A.19.19,0,0,1,1059.16,108.77Z" transform="translate(-834.33 -68.68)"/><path class="cls-1" d="M1063.29,109.4l3.45-6.12a.18.18,0,0,1,.15-.1h.08a.14.14,0,0,1,.13.1l1.71,6.12a.18.18,0,0,1-.17.24h-1a.25.25,0,0,1-.29-.23l-.16-.72h-2l-.36.73a.37.37,0,0,1-.36.22h-1C1063.27,109.64,1063.23,109.52,1063.29,109.4Zm3.53-2-.28-1.51h0l-.73,1.51Z" transform="translate(-834.33 -68.68)"/><path class="cls-1" d="M1072.85,103.18a2.34,2.34,0,0,1,1.9.85.18.18,0,0,1,0,.25l-.78.69a.14.14,0,0,1-.21,0,1.4,1.4,0,0,0-1-.42,2,2,0,0,0-1.74,2.16c0,.85.48,1.56,1.23,1.56a1.92,1.92,0,0,0,1-.47.16.16,0,0,1,.22,0l.62.82a.19.19,0,0,1-.05.24,2.92,2.92,0,0,1-2,.86,2.76,2.76,0,0,1-2.59-2.87A3.48,3.48,0,0,1,1072.85,103.18Z" transform="translate(-834.33 -68.68)"/><path class="cls-1" d="M888.76,68.75h30.18s-11.6,29.47-26.4,31.52H837.35s-6.79-1.21,0-15.76h27.83s-3.49,6.4,1.32,7.86C876,95.24,888.76,68.75,888.76,68.75Z" transform="translate(-834.33 -68.68)"/><polygon class="cls-1" points="124.52 0 147.11 0 121.4 17 113.03 31.66 85.11 31.66 94.51 14.77 84.61 0 105.5 0 110.95 9.19 124.52 0"/><path class="cls-2" d="M917.6,112.27H906.9v11.15h3.33l0-2.72,6.92.07s2.68.26,2.81-4.07S917.6,112.27,917.6,112.27Zm-1.81,5.57h-5.27v-2.6h5.24c.39,0,.81.31.81,1.26S916.05,117.84,915.79,117.84Z" transform="translate(-834.33 -68.68)"/><path class="cls-2" d="M927.22,112.32h3.58v7.19a1.24,1.24,0,0,0,.6,1.15,18.41,18.41,0,0,0,5.3,0,1.19,1.19,0,0,0,.71-1.16c.05-.65.06-7.18.06-7.18h3.34l0,8.88a2.48,2.48,0,0,1-2.53,2.16c-2.41.22-7.86.05-7.86.05a4.34,4.34,0,0,1-2.21-.61,2.06,2.06,0,0,1-1-1.59Z" transform="translate(-834.33 -68.68)"/><polygon class="cls-2" points="161.31 54.65 161.31 46.56 156.53 46.56 156.53 43.3 169.46 43.3 169.46 46.56 164.87 46.56 164.93 54.65 161.31 54.65"/><path class="cls-2" d="M1025.73,115.66c0-2.74-3.08-3.37-3.08-3.37h-8.52c-2.78,0-3.09,3.15-3.11,3.35s0,2.67,0,4.87,3.25,2.78,3.25,2.78l8.36,0a3.28,3.28,0,0,0,3.08-2.76C1025.79,119.6,1025.73,118.38,1025.73,115.66Zm-4,2.93a1.51,1.51,0,0,1-1.47,1.56h-3.78a1.51,1.51,0,0,1-1.47-1.56V116.9a1.51,1.51,0,0,1,1.47-1.56h3.78a1.51,1.51,0,0,1,1.47,1.56Z" transform="translate(-834.33 -68.68)"/><path class="cls-2" d="M1036.36,112h6.85a4,4,0,0,1,3.64,3.74h-4.31s0-.54-.35-.7a7.44,7.44,0,0,0-1.78-.11h-2.74a.56.56,0,0,0-.47.62c0,.47.15.56.36.58s6,.12,6,.12,3.38-.11,3.39,2.6a6.41,6.41,0,0,1-.53,3.58,2,2,0,0,1-1.36.86c-.69.15-8.66,0-8.66,0a3.3,3.3,0,0,1-2.44-1,4.34,4.34,0,0,1-.87-2.63h4a1.51,1.51,0,0,0,1.51,1.21H1042a.77.77,0,0,0,.77-.9s0-1-.64-1c-2.24,0-6.25,0-6.25,0s-2.71.21-2.82-2a14.91,14.91,0,0,1,0-2.63S1033.3,112.19,1036.36,112Z" transform="translate(-834.33 -68.68)"/><path class="cls-2" d="M958.25,112.18h-6A4.22,4.22,0,0,0,948,116.4v2.78a4.22,4.22,0,0,0,4.21,4.21h6a4.22,4.22,0,0,0,4.22-4.21l-4,0a2.63,2.63,0,0,1-.3.94c-.34.62-.78.56-.78.56l-4.22,0s-.45.06-.82-.6a2.29,2.29,0,0,1-.26-1.64l10.39,0v-2A4.22,4.22,0,0,0,958.25,112.18Zm-6.17,4s-.06-1.64,1.13-1.68,4.23,0,4.23,0,1,0,1.13,1.7Z" transform="translate(-834.33 -68.68)"/><path class="cls-2" d="M895.4,112.1h-6a4.2,4.2,0,0,0-4.21,4.21v2.78a4.21,4.21,0,0,0,4.21,4.21h6a4.22,4.22,0,0,0,4.21-4.21l-4,0a2.71,2.71,0,0,1-.3.95c-.34.62-.77.56-.77.56l-4.23,0s-.45,0-.82-.61a2.19,2.19,0,0,1-.25-1.63l10.38,0v-2A4.21,4.21,0,0,0,895.4,112.1Zm-6.17,4s-.06-1.63,1.12-1.68,4.23,0,4.23,0,1,0,1.13,1.7Z" transform="translate(-834.33 -68.68)"/><path class="cls-2" d="M973.06,112h6.85a4,4,0,0,1,3.64,3.74h-4.3s0-.54-.35-.7a7.48,7.48,0,0,0-1.78-.11h-2.75a.56.56,0,0,0-.46.62c0,.47.14.56.36.58s6,.12,6,.12,3.38-.11,3.39,2.6a6.59,6.59,0,0,1-.53,3.58,2,2,0,0,1-1.37.86c-.69.15-8.66,0-8.66,0a3.31,3.31,0,0,1-2.44-1,4.38,4.38,0,0,1-.86-2.63h3.94a1.52,1.52,0,0,0,1.52,1.21h3.44a.78.78,0,0,0,.78-.9s0-1-.65-1c-2.23,0-6.24,0-6.24,0s-2.72.21-2.82-2a13.63,13.63,0,0,1,0-2.63S970,112.19,973.06,112Z" transform="translate(-834.33 -68.68)"/><path class="cls-2" d="M880,116.4c.09-1.92-.25-2.41-.6-3-.84-1.37-3-1.36-3-1.36H866v11.37h3.49v-2.58h5.82s.67,0,.68,1.07c0,.4,0,1.51,0,1.51l3.76,0c0-1.81.13-3.14-.19-3.62a2,2,0,0,0-1.57-.71A2.9,2.9,0,0,0,880,116.4Zm-4.17,1.53h-6v-2.7H876s.71.16.68,1.43S875.78,117.93,875.78,117.93Z" transform="translate(-834.33 -68.68)"/><rect class="cls-3" x="0.89" y="42.77" width="5.08" height="11.93"/><rect class="cls-1" x="9.23" y="42.77" width="5.08" height="11.93"/><polygon class="cls-2" points="22.7 54.71 17.62 54.71 17.62 42.77 22.7 42.77 25.87 48.74 22.7 54.71"/></svg>